<?xml version="1.0" encoding="UTF-8" standalone="no" ?>
<!DOCTYPE svg PUBLIC "-//W3C//DTD SVG 1.1//EN" "http://www.w3.org/Graphics/SVG/1.1/DTD/svg11.dtd">
<svg xmlns="http://www.w3.org/2000/svg" xmlns:xlink="http://www.w3.org/1999/xlink" version="1.1" width="640" height="480" viewBox="0 0 640 480" xml:space="preserve">
<desc>Created with Fabric.js 3.6.6</desc>
<defs>
</defs>
<rect x="0" y="0" width="100%" height="100%" fill="rgba(181, 52, 52, 0)"></rect>
<g transform="matrix(0.16 0 0 0.16 319 113.44)"  >
<g style=""   >
		<g transform="matrix(33.33 0 0 33.33 0.52 -116.72)" id="SVGRepo_iconCarrier"  >
<path style="stroke: rgb(51,80,112); stroke-width: 0; stroke-dasharray: none; stroke-linecap: round; stroke-dashoffset: 0; stroke-linejoin: miter; stroke-miterlimit: 4; fill: rgb(13,118,217); fill-rule: nonzero; opacity: 0.1;"  transform=" translate(-12.02, -8.5)" d="M 3.68 15 H 20.94 A 3.49 3.49 0 0 0 19 9 V 9 A 7 7 0 0 0 5.24 7.18 A 4.49 4.49 0 0 0 3.68 15 Z" stroke-linecap="round" />
</g>
		<g transform="matrix(33.33 0 0 33.33 -0.14 -106.39)" id="SVGRepo_iconCarrier"  >
<path style="stroke: rgb(51,80,112); stroke-width: 1; stroke-dasharray: none; stroke-linecap: round; stroke-dashoffset: 0; stroke-linejoin: miter; stroke-miterlimit: 4; fill: none; fill-rule: nonzero; opacity: 1;"  transform=" translate(-12, -8.81)" d="M 4 15.24 A 4.5 4.5 0 0 1 5.24 7.18 A 7 7 0 0 1 19 9 V 9 a 3.5 3.5 0 0 1 1 6.62" stroke-linecap="round" />
</g>
		<g transform="matrix(33.33 0 0 33.33 0 -33.33)" id="SVGRepo_iconCarrier"  >
<polyline style="stroke: rgb(51,80,112); stroke-width: 1; stroke-dasharray: none; stroke-linecap: round; stroke-dashoffset: 0; stroke-linejoin: miter; stroke-miterlimit: 4; fill: none; fill-rule: nonzero; opacity: 1;"  points="-4,2 0,-2 4,2 " />
</g>
		<g transform="matrix(33.33 0 0 33.33 0 58.33)" id="SVGRepo_iconCarrier"  >
<line style="stroke: rgb(51,80,112); stroke-width: 1; stroke-dasharray: none; stroke-linecap: round; stroke-dashoffset: 0; stroke-linejoin: miter; stroke-miterlimit: 4; fill: none; fill-rule: nonzero; opacity: 1;"  x1="0" y1="4.25" x2="0" y2="-4.25" />
</g>
</g>
</g>
<g transform="matrix(0.27 0 0 0.27 290.39 241.32)"  >
<g style=""   >
		<g transform="matrix(1.56 0 0 1.56 -0.02 0)" id="SVGRepo_iconCarrier"  >
<circle style="stroke: none; stroke-width: 1; stroke-dasharray: none; stroke-linecap: butt; stroke-dashoffset: 0; stroke-linejoin: miter; stroke-miterlimit: 4; fill: rgb(219,238,255); fill-rule: nonzero; opacity: 1;"  cx="0" cy="0" r="62.535" />
</g>
		<g transform="matrix(1.56 0 0 1.56 -0.02 0)" id="SVGRepo_iconCarrier"  >
<path style="stroke: none; stroke-width: 1; stroke-dasharray: none; stroke-linecap: butt; stroke-dashoffset: 0; stroke-linejoin: miter; stroke-miterlimit: 4; fill: rgb(23,59,99); fill-rule: nonzero; opacity: 1;"  transform=" translate(-255.99, -256)" d="M 255.987 333.182 c -42.558 0 -77.181 -34.624 -77.181 -77.182 s 34.624 -77.181 77.181 -77.181 s 77.181 34.623 77.181 77.181 S 298.543 333.182 255.987 333.182 z M 255.987 208.11 c -26.407 0 -47.89 21.483 -47.89 47.89 s 21.483 47.892 47.89 47.892 s 47.89 -21.483 47.89 -47.892 C 303.877 229.593 282.394 208.11 255.987 208.11 z" stroke-linecap="round" />
</g>
		<g transform="matrix(1.56 0 0 1.56 -139.7 83.64)" id="SVGRepo_iconCarrier"  >
<path style="stroke: none; stroke-width: 1; stroke-dasharray: none; stroke-linecap: butt; stroke-dashoffset: 0; stroke-linejoin: miter; stroke-miterlimit: 4; fill: rgb(219,238,255); fill-rule: nonzero; opacity: 1;"  transform=" translate(-166.59, -309.53)" d="M 255.987 377.567 c -66.4 0 -120.33 -53.244 -121.511 -119.362 c -29.109 -50.348 -67.137 -116.127 -78.916 -136.502 c -86.177 136.562 -9.5 256.395 -9.5 256.395 c 76.763 121.421 192.983 119.252 192.983 119.252 s 49.58 -85.233 79.508 -137.111 C 300.271 371.234 278.87 377.567 255.987 377.567 z" stroke-linecap="round" />
</g>
		<g transform="matrix(1.56 0 0 1.56 0 0)" id="SVGRepo_iconCarrier"  >
<path style="stroke: none; stroke-width: 1; stroke-dasharray: none; stroke-linecap: butt; stroke-dashoffset: 0; stroke-linejoin: miter; stroke-miterlimit: 4; fill: rgb(23,59,99); fill-rule: nonzero; opacity: 1;"  transform=" translate(-256, -256)" d="M 497.568 244.283 c -8.093 -0.157 -14.762 6.289 -14.909 14.377 c -0.684 37.669 -10.76 75.236 -29.983 111.725 c -0.578 1.11 -55.938 104.535 -187.934 111.896 c 16.322 -28.088 44.567 -76.734 64.699 -111.612 c 38.841 -24.945 62.757 -68.364 62.757 -114.668 c 0 -33.911 -12.756 -66.185 -34.802 -90.843 c 53.884 0.041 108.21 0.146 114.796 0.16 c 2.541 0.124 5.146 -0.397 7.557 -1.674 c 4.946 -2.622 7.768 -7.673 7.785 -12.905 c 0 -0.012 0.001 -0.023 0.001 -0.035 c 0 -0.107 -0.013 -0.209 -0.015 -0.315 c -0.007 -0.359 -0.018 -0.719 -0.053 -1.078 c -0.025 -0.269 -0.07 -0.533 -0.11 -0.798 c -0.029 -0.196 -0.05 -0.391 -0.088 -0.586 c -0.078 -0.412 -0.179 -0.813 -0.29 -1.211 c -0.013 -0.047 -0.022 -0.095 -0.037 -0.142 c -0.328 -1.128 -0.791 -2.194 -1.365 -3.191 C 444.41 66.023 384.143 31.151 340.79 15.523 C 293.653 -1.469 256.272 -0.008 254.78 0.057 C 176.498 3.15 123.182 33.869 92.239 59.093 c -31.873 25.984 -47.186 51.489 -49.371 55.295 C -3.839 188.711 -4.023 258.329 4.076 303.685 c 8.808 49.328 28.801 80.983 29.605 82.239 c 32.17 50.887 76.494 88.704 128.18 109.361 c 39.803 15.908 70.935 16.713 76.771 16.713 c 0 0 8.267 -0.009 11.18 -0.009 c 81.721 -0.003 138.524 -32.937 172.279 -61.318 c 38.385 -32.274 55.85 -65.381 56.537 -66.705 c 21.34 -40.506 32.551 -82.487 33.317 -124.775 C 512.092 251.106 505.654 244.43 497.568 244.283 z M 111.782 80.958 c 39.804 -32.054 88.304 -49.426 144.199 -51.636 c 0.338 -0.013 34.118 -1.176 76.018 14.169 c 48.032 17.592 86.699 48.658 115.245 92.487 c -31.518 -0.056 -86.27 -0.138 -130.895 -0.129 c -6.636 0 -12.443 4.464 -14.15 10.876 c -1.708 6.413 1.11 13.173 6.866 16.475 c 33.213 19.042 53.843 54.602 53.843 92.8 c 0 37.819 -20.325 73.2 -53.041 92.339 c -0.025 0.015 -0.045 0.032 -0.07 0.047 c -16.283 9.505 -34.853 14.535 -53.81 14.535 c -57.893 0 -105.836 -47.093 -106.87 -104.979 c 0 -0.013 -0.003 -0.025 -0.003 -0.037 l -0.016 -0.521 c -0.016 -0.46 -0.034 -0.92 -0.034 -1.384 c 0 -58.956 47.965 -106.921 106.922 -106.921 c 8.087 0 14.645 -6.557 14.645 -14.645 s -6.558 -14.645 -14.645 -14.645 c -60.693 0 -112.231 39.901 -129.784 94.847 l -53.479 -92.503 C 78.918 113.285 91.636 97.181 111.782 80.958 z M 58.413 370.234 c -0.18 -0.284 -18.1 -28.951 -25.714 -72.896 c -8.726 -50.356 -1.062 -99.344 22.775 -145.957 c 16.136 28.014 44.263 76.807 64.536 111.764 c 1.76 34.102 16.022 65.901 40.493 89.975 c 25.622 25.209 59.532 39.091 95.483 39.091 c 9.443 0 18.813 -0.989 27.965 -2.904 c -21.06 36.399 -42.529 73.503 -53.775 92.936 C 203.149 479.819 118.107 464.656 58.413 370.234 z" stroke-linecap="round" />
</g>
</g>
</g>
</svg>